<svg width="48" height="45" viewBox="0 0 48 45" fill="none" xmlns="http://www.w3.org/2000/svg">
<g opacity="0.2">
<path d="M15.5346 10.2181C9.57428 4.63044 5.10958 7.69248 7.81069 9.59228C12.7888 13.1237 13.6594 14.7105 15.5346 13.1237C16.2712 12.4978 16.3605 11.0004 15.5346 10.2181Z" fill="white"/>
<path d="M32.7682 1.12161C29.6207 -0.442933 27.2321 4.94355 28.0134 8.29614C28.2589 9.36897 29.7769 9.50308 30.3127 8.58671C32.2771 5.23411 35.5363 2.48498 32.7682 1.09924V1.12161Z" fill="white"/>
<path d="M10.1769 33.5079C8.52503 28.7472 2.78801 37.0841 2.07367 39.565C0.600337 44.6609 11.3154 36.7935 10.1769 33.5079Z" fill="white"/>
<path d="M26.897 17.3034C26.4059 16.2529 24.553 15.6495 22.9681 19.2479C22.3654 20.6113 23.4146 20.8348 19.8875 18.6221C18.4811 17.7504 16.7622 19.8738 18.0793 20.969C21.2492 23.6063 22.8118 25.4614 24.62 24.411C25.6692 23.8075 27.8122 19.315 26.8747 17.2811L26.897 17.3034Z" fill="white"/>
<path d="M34.7102 20.388C34.3976 20.0751 35.8486 18.3542 35.9602 15.605C36.0049 14.6663 34.7101 12.8783 31.7411 17.8401C25.4237 28.3672 38.6167 24.3664 34.7102 20.388Z" fill="white"/>
<path d="M28.0801 37.6425C26.1157 30.1774 22.3207 30.915 19.3517 37.1284C18.5034 38.8941 20.7804 40.1681 21.9189 38.6259C24.0619 35.7651 23.2136 36.9049 24.4637 41.1292C25.6692 45.2194 30.3571 46.2699 28.0801 37.6425Z" fill="white"/>
<path d="M46.7201 31.921C44.8673 29.9989 41.1393 29.3731 34.487 28.2108C32.143 27.8085 31.0938 31.2729 33.4824 31.854C34.7325 32.1669 51.7652 37.1287 46.7201 31.921Z" fill="white"/>
<path d="M7.18556 16.0517C5.82384 14.8894 4.57374 13.6155 3.41293 12.2297C2.09586 10.6428 -0.515935 12.6991 0.577903 14.4201C7.78831 25.7742 14.5076 22.2428 7.18556 16.0517Z" fill="white"/>
</g>
</svg>
