<svg width="75" height="44" viewBox="0 0 75 44" fill="none" xmlns="http://www.w3.org/2000/svg">
<path d="M1.48198 20.9865C-2.58085 17.701 8.58077 12.3368 15.5679 30.4408C17.1529 29.2786 19.7201 29.815 22.0194 20.8077C26.3501 3.77655 40.9494 0.513316 57.0445 1.6979C57.2008 1.6979 72.827 2.86017 73.2735 3.41894C74.4789 4.89408 71.0635 18.9526 56.1293 25.166C42.2219 30.9549 28.002 27.2 24.5642 28.0493C21.4166 28.8092 19.6084 32.1842 16.6618 33.5252C18.6485 36.252 20.2112 39.7387 21.5282 42.9795C21.5282 42.9795 18.4923 43.1136 18.0905 42.9348C16.3269 42.1302 14.2732 31.3125 1.45966 20.9865H1.48198Z" fill="#048C3D" stroke="#03403F" stroke-width="1.11753" stroke-linecap="round" stroke-linejoin="round"/>
</svg>
