<svg width="79" height="80" viewBox="0 0 79 80" fill="none" xmlns="http://www.w3.org/2000/svg">
<path d="M16.1098 38.8922C14.1007 37.6853 12.1586 38.2441 9.63604 32.0753C5.39463 21.7717 9.81461 28.0298 1.10855 15.0664C-0.186194 13.1443 0.996962 12.1162 2.73817 12.6973C6.89029 14.083 6.77867 17.905 13.5426 17.0557C29.1465 15.1335 29.1689 21.0564 32.3834 19.5366C34.1916 18.6649 35.8882 12.2056 44.6612 7.46724C47.6079 5.88035 50.934 4.74049 53.1887 2.25958C53.903 1.45495 55.0415 0.471502 55.8674 1.18672C57.6533 2.77362 54.7736 7.91428 54.3718 10.0823C53.5682 14.463 56.7381 18.8214 54.3718 25.5042C52.6306 30.3543 54.5504 31.6506 59.7517 33.461C72.7215 37.9535 70.9803 41.7084 76.0923 43.8987C80.3337 45.7091 77.7889 47.8101 76.3379 47.9666C73.6368 48.2348 70.9133 47.4078 68.2122 47.5196C62.9216 47.7431 58.6579 54.1353 49.9072 50.0451C55.8452 64.2378 48.6347 64.5507 49.9964 74.452C50.1973 75.9048 50.5322 78.1399 48.7687 78.6316C46.7373 79.1904 45.7997 76.173 45.4202 75.3907C42.2949 68.9091 34.9282 71.5912 30.4636 60.7064C29.5707 58.5161 24.7042 61.9804 23.6327 62.405C20.4405 63.6567 16.8911 61.6228 13.4756 61.8016C11.0201 61.9357 8.76541 63.1873 6.46611 64.0813C2.91672 65.4671 1.68898 62.8744 3.36322 60.8628C4.07756 59.9912 5.12676 59.4324 5.95272 58.6725C8.47525 56.3481 8.76545 52.5485 9.99322 49.33C12.9622 41.5743 18.0965 40.0992 16.1544 38.9146L16.1098 38.8922Z" fill="#BFE375" stroke="#03403F" stroke-width="1.11753" stroke-linecap="round" stroke-linejoin="round"/>
</svg>
