<svg width="72" height="83" viewBox="0 0 72 83" fill="none" xmlns="http://www.w3.org/2000/svg">
<path d="M3.85887 17.1393C2.85432 20.0673 0.220189 30.7733 2.05069 36.2492C3.52403 40.6075 3.81424 39.0877 3.45707 44.4742C2.80969 54.2638 8.70307 59.4714 9.70761 61.4383C10.8015 63.5616 11.1139 70.3115 20.6906 76.0556C23.3471 77.6425 35.915 83.2972 38.3259 81.8891C38.9063 81.5538 39.2859 80.9728 39.844 80.6152C41.7191 79.3635 44.0854 81.0398 46.2954 81.5092C49.5322 82.1797 53.037 79.5423 53.2825 76.2344C57.4123 79.587 63.5736 76.0109 62.7253 70.7585C66.4309 70.6915 71.409 66.2437 67.8373 57.0128C73.8422 48.9443 70.5831 37.2996 61.2519 33.5447C61.81 27.063 55.6711 20.8272 49.1751 21.2966C49.4876 10.9706 43.1478 10.7471 41.1387 12.5799C41.5852 8.0427 36.741 4.75716 32.7005 6.92517C33.013 4.98066 31.3834 0.957516 26.6286 1.09162C21.4273 1.24807 8.01099 5.02531 3.85887 17.1393Z" fill="#F2BD57" stroke="#03403F" stroke-width="1.11753" stroke-linecap="round" stroke-linejoin="round"/>
</svg>
