<svg width="77" height="105" viewBox="0 0 77 105" fill="none" xmlns="http://www.w3.org/2000/svg">
<path d="M73.8649 3.70393C72.0791 2.85461 69.2664 4.7097 67.5028 5.17906C47.9477 10.5209 48.4611 8.1517 39.7551 3.70393C18.9944 -6.89026 9.35081 15.2592 0.957275 17.4496C6.82829 28.3567 22.8341 31.1505 35.0895 20.8468C41.4516 15.5051 41.1168 13.9852 50.5595 12.1078C86.8348 4.93322 54.5107 6.85536 50.2023 37.9227C47.7691 55.4009 33.6385 66.7774 47.0994 87.0047C54.5554 98.2247 68.8199 104.349 70.2486 103.745C72.6149 102.74 79.9815 75.8964 63.4177 56.7866C57.1002 49.5003 44.2644 42.1917 59.0647 19.9528C59.8236 18.8353 67.793 12.0407 66.4983 14.7451C65.6054 16.5779 55.9171 26.0769 62.3685 26.211C65.3151 26.2781 65.6947 22.6572 67.034 20.7351C75.1597 8.95631 78.4859 5.87193 73.8649 3.68157V3.70393Z" fill="#048C3D" stroke="#03403F" stroke-width="1.11753" stroke-linecap="round" stroke-linejoin="round"/>
</svg>
